<?xml version="1.0" encoding="UTF-8" standalone="no"?>
<!DOCTYPE svg PUBLIC "-//W3C//DTD SVG 1.1//EN" "http://www.w3.org/Graphics/SVG/1.1/DTD/svg11.dtd">
<!-- Generated by Microsoft Visio, SVG Export blazor.svg Page-1 -->
<svg xmlns="http://www.w3.org/2000/svg" xmlns:xlink="http://www.w3.org/1999/xlink" xmlns:ev="http://www.w3.org/2001/xml-events"
		width="11in" height="8.5in" viewBox="0 0 792 612" xml:space="preserve" color-interpolation-filters="sRGB" class="st19">
	<style type="text/css">
	<![CDATA[
		.st1 {fill:#feffff;stroke:#94b6d2;stroke-dasharray:0.5,1;stroke-width:0.5}
		.st2 {fill:#345d7e;font-family:Calibri;font-size:1.99999em;font-weight:bold}
		.st3 {fill:#eef2f6;stroke:#feffff;stroke-width:1}
		.st4 {fill:#345d7e;font-family:Calibri;font-size:1.5em;font-weight:bold}
		.st5 {fill:#feffff;stroke:#dd8047;stroke-dasharray:0.5,1;stroke-width:0.5}
		.st6 {fill:#a25c31;font-family:Calibri;font-size:1.5em;font-weight:bold}
		.st7 {font-size:1em}
		.st8 {marker-end:url(#mrkr4-16);stroke:#968c8c;stroke-linecap:round;stroke-linejoin:round;stroke-width:1}
		.st9 {fill:#968c8c;fill-opacity:1;stroke:#968c8c;stroke-opacity:1;stroke-width:0.28409090909091}
		.st10 {fill:#dd8047;stroke:#feffff;stroke-width:1}
		.st11 {fill:#feffff;font-family:Calibri;font-size:1.5em;font-weight:bold}
		.st12 {marker-end:url(#mrkr4-28);stroke:#dd8047;stroke-linecap:round;stroke-linejoin:round;stroke-width:1}
		.st13 {fill:#dd8047;fill-opacity:1;stroke:#dd8047;stroke-opacity:1;stroke-width:0.28409090909091}
		.st14 {fill:#94b6d2;stroke:#feffff;stroke-width:1}
		.st15 {fill:#feffff;font-family:Calibri;font-size:1.00001em;font-weight:bold}
		.st16 {marker-end:url(#mrkr13-52);marker-start:url(#mrkr13-50);stroke:#94b6d2;stroke-linecap:round;stroke-linejoin:round;stroke-width:1}
		.st17 {fill:#94b6d2;fill-opacity:1;stroke:#94b6d2;stroke-opacity:1;stroke-width:0.28409090909091}
		.st18 {marker-end:url(#mrkr13-91);marker-start:url(#mrkr13-89);stroke:#968c8c;stroke-dasharray:3,3;stroke-linecap:round;stroke-linejoin:round;stroke-width:1}
		.st19 {fill:none;fill-rule:evenodd;font-size:12px;overflow:visible;stroke-linecap:square;stroke-miterlimit:3}
	]]>
	</style>

	<defs id="Markers">
		<g id="lend4">
			<path d="M 2 1 L 0 0 L 2 -1 L 2 1 " style="stroke:none"/>
		</g>
		<marker id="mrkr4-16" class="st9" refX="-7.04" orient="auto" markerUnits="strokeWidth" overflow="visible">
			<use xlink:href="#lend4" transform="scale(-3.52,-3.52) "/>
		</marker>
		<marker id="mrkr4-28" class="st13" refX="-7.04" orient="auto" markerUnits="strokeWidth" overflow="visible">
			<use xlink:href="#lend4" transform="scale(-3.52,-3.52) "/>
		</marker>
		<g id="lend13">
			<path d="M 3 1 L 0 0 L 3 -1 L 3 1 " style="stroke:none"/>
		</g>
		<marker id="mrkr13-50" class="st17" refX="10.2" orient="auto" markerUnits="strokeWidth" overflow="visible">
			<use xlink:href="#lend13" transform="scale(3.52) "/>
		</marker>
		<marker id="mrkr13-52" class="st17" refX="-10.56" orient="auto" markerUnits="strokeWidth" overflow="visible">
			<use xlink:href="#lend13" transform="scale(-3.52,-3.52) "/>
		</marker>
		<marker id="mrkr13-89" class="st9" refX="10.2" orient="auto" markerUnits="strokeWidth" overflow="visible">
			<use xlink:href="#lend13" transform="scale(3.52) "/>
		</marker>
		<marker id="mrkr13-91" class="st9" refX="-10.56" orient="auto" markerUnits="strokeWidth" overflow="visible">
			<use xlink:href="#lend13" transform="scale(-3.52,-3.52) "/>
		</marker>
	</defs>
	<g>
		<title>Page-1</title>
		<g id="shape1-1" transform="translate(409.5,-234)">
			<title>Rectangle</title>
			<desc>Browser</desc>
			<path d="M0 612 L364.5 612 L364.5 282 L0 282 L0 612 Z" class="st1"/>
			<text x="277.54" y="307.6" class="st2">Browser</text>		</g>
		<g id="shape3-4" transform="translate(252,-396)">
			<title>Rectangle.3</title>
			<desc>mono.js</desc>
			<rect x="0" y="540" width="135" height="72" class="st3"/>
			<text x="37.38" y="581.4" class="st4">mono.js</text>		</g>
		<g id="shape7-7" transform="translate(429.75,-261)">
			<title>Rectangle.7</title>
			<desc>JavaScript Runtime</desc>
			<path d="M0 612 L200.25 612 L200.25 360 L0 360 L0 612 Z" class="st5"/>
			<text x="121.24" y="380.2" class="st6">JavaScript <tspan x="132.43" dy="1.2em" class="st7">Runtime</tspan></text>		</g>
		<g id="shape8-11" transform="translate(387,-423)">
			<title>Dynamic connector</title>
			<path d="M0 603 L51.46 603" class="st8"/>
		</g>
		<g id="shape9-17" transform="translate(445.5,-414)">
			<title>Rectangle.9</title>
			<desc>Parser</desc>
			<rect x="0" y="576" width="171" height="36" class="st10"/>
			<text x="61.75" y="599.4" class="st11">Parser</text>		</g>
		<g id="shape10-20" transform="translate(445.5,-351)">
			<title>Rectangle.10</title>
			<desc>Compiler</desc>
			<rect x="0" y="576" width="171" height="36" class="st10"/>
			<text x="51.6" y="599.4" class="st11">Compiler</text>		</g>
		<g id="shape12-23" transform="translate(522,-414)">
			<title>Dynamic connector.12</title>
			<path d="M9 612 L9 631.96" class="st12"/>
		</g>
		<g id="shape13-29" transform="translate(445.5,-288)">
			<title>Rectangle.13</title>
			<desc>JIT</desc>
			<rect x="0" y="576" width="171" height="36" class="st10"/>
			<text x="75.67" y="599.4" class="st11">JIT</text>		</g>
		<g id="shape15-32" transform="translate(522,-351)">
			<title>Dynamic connector.15</title>
			<path d="M9 612 L9 631.96" class="st12"/>
		</g>
		<g id="shape16-37" transform="translate(117,-522)">
			<title>Rectangle.16</title>
			<desc>Blazor Page (.html)</desc>
			<rect x="0" y="540" width="270" height="72" class="st3"/>
			<text x="64.09" y="581.4" class="st4">Blazor Page (.html)</text>		</g>
		<g id="shape19-40" transform="translate(648,-351)">
			<title>Rectangle.19</title>
			<desc>Web APIs (DOM, File Storage etc.)</desc>
			<rect x="0" y="513" width="108" height="99" class="st14"/>
			<text x="12.29" y="558.9" class="st15">Web APIs (DOM, <tspan x="12.38" dy="1.2em" class="st7">File Storage etc</tspan>.)</text>		</g>
		<g id="shape21-44" transform="translate(616.5,-306)">
			<title>Dynamic connector.21</title>
			<path d="M10.2 612 L10.56 612 L85.5 612 L85.5 577.56" class="st16"/>
		</g>
		<g id="shape23-53" transform="translate(198,-270)">
			<title>Rectangle.23</title>
			<desc>mono.wasm</desc>
			<rect x="0" y="540" width="189" height="72" class="st3"/>
			<text x="48.21" y="581.4" class="st4">mono.wasm</text>		</g>
		<g id="shape24-56" transform="translate(387,-297)">
			<title>Dynamic connector.24</title>
			<path d="M0 603 L51.46 603" class="st8"/>
		</g>
		<g id="shape25-61" transform="translate(117,-396)">
			<title>Rectangle.25</title>
			<desc>blazor.js</desc>
			<rect x="0" y="540" width="135" height="72" class="st3"/>
			<text x="36.11" y="581.4" class="st4">blazor.js</text>		</g>
		<g id="shape26-64" transform="translate(198,-162)">
			<title>Rectangle.26</title>
			<desc>myapp.dll (Blazor app)</desc>
			<rect x="0" y="540" width="189" height="72" class="st3"/>
			<text x="57.16" y="570.6" class="st4">myapp.dll <tspan x="49.44" dy="1.2em" class="st7">(</tspan>Blazor app)</text>		</g>
		<g id="shape27-68" transform="translate(283.5,-234)">
			<title>Dynamic connector.27</title>
			<path d="M9 612 L9 583.04" class="st8"/>
		</g>
		<g id="shape28-73" transform="translate(63,-162)">
			<title>Rectangle.28</title>
			<desc>mscorlib.dll netstandard.dll etc...</desc>
			<rect x="0" y="540" width="135" height="72" class="st3"/>
			<text x="23.88" y="559.8" class="st4">mscorlib.dll <tspan x="10.08" dy="1.2em" class="st7">netstandard</tspan>.dll <tspan
						x="48.87" dy="1.2em" class="st7">etc</tspan>...</text>		</g>
		<g id="shape30-78" transform="translate(130.5,-234)">
			<title>Dynamic connector.30</title>
			<path d="M0 612 L0 540 L60.46 540" class="st8"/>
		</g>
		<g id="shape31-83" transform="translate(184.5,-396)">
			<title>Dynamic connector.31</title>
			<path d="M0 622.2 L0 622.56 L0 625.5 L108 625.5 L108 655.44" class="st18"/>
		</g>
		<g id="shape32-92" transform="translate(310.632,-396)">
			<title>Dynamic connector.32</title>
			<path d="M8.92 622.2 L8.92 622.56 L9.08 655.44" class="st18"/>
		</g>
		<g id="shape35-99" transform="translate(175.5,-522)">
			<title>Dynamic connector.35</title>
			<path d="M9 612 L9 658.96" class="st8"/>
		</g>
		<g id="shape37-104" transform="translate(310.5,-522)">
			<title>Dynamic connector.37</title>
			<path d="M9 612 L9 658.96" class="st8"/>
		</g>
	</g>
</svg>
